<svg width="47" height="51" viewBox="0 0 47 51" fill="none" xmlns="http://www.w3.org/2000/svg">
<path d="M0 9.68354C0 6.11816 2.8436 3.22785 6.35135 3.22785H40.6486C44.1564 3.22785 47 6.11816 47 9.68354V44.5443C47 48.1097 44.1564 51 40.6486 51H6.35135C2.8436 51 0 48.1097 0 44.5443V9.68354Z" fill="url(#paint0_linear_1_32)"/>
<path d="M10.7973 1.61392C10.7973 0.722578 11.5082 0 12.3851 0C13.2621 0 13.973 0.722578 13.973 1.61392V4.84177C13.973 5.73312 13.2621 6.4557 12.3851 6.4557C11.5082 6.4557 10.7973 5.73312 10.7973 4.84177V1.61392Z" fill="url(#paint1_linear_1_32)"/>
<path d="M33.027 1.61392C33.027 0.722578 33.7379 0 34.6149 0C35.4918 0 36.2027 0.722578 36.2027 1.61392V4.84177C36.2027 5.73312 35.4918 6.4557 34.6149 6.4557C33.7379 6.4557 33.027 5.73312 33.027 4.84177V1.61392Z" fill="url(#paint2_linear_1_32)"/>
<defs>
<linearGradient id="paint0_linear_1_32" x1="43.1892" y1="50.0316" x2="0.869169" y2="5.853" gradientUnits="userSpaceOnUse">
<stop stop-color="#676BC2"/>
<stop offset="1" stop-color="#B8ADFE"/>
</linearGradient>
<linearGradient id="paint1_linear_1_32" x1="43.1892" y1="50.0316" x2="0.869169" y2="5.853" gradientUnits="userSpaceOnUse">
<stop stop-color="#676BC2"/>
<stop offset="1" stop-color="#B8ADFE"/>
</linearGradient>
<linearGradient id="paint2_linear_1_32" x1="43.1892" y1="50.0316" x2="0.869169" y2="5.853" gradientUnits="userSpaceOnUse">
<stop stop-color="#676BC2"/>
<stop offset="1" stop-color="#B8ADFE"/>
</linearGradient>
</defs>
</svg>
