<svg width="317" height="226" viewBox="0 0 317 226" fill="none" xmlns="http://www.w3.org/2000/svg">
<path opacity="0.1" d="M317 125.522C316.972 166.432 283.742 199.602 242.793 199.574C238.864 199.574 234.962 199.27 231.089 198.635H113.58C109.042 199.27 104.477 199.574 99.8839 199.574C55.2267 199.574 17.4313 170.302 4.64834 129.944C1.54945 120.187 0 110.015 0 99.7872C0 44.6693 44.7126 0 99.8839 0C144.32 0 181.949 28.9687 194.926 69.0494C208.317 57.661 225.306 51.4415 242.876 51.4692C283.825 51.4692 317 84.6118 317 125.522Z" fill="#6C63FF"/>
<path opacity="0.1" d="M288.529 183.874C272.26 196.561 251.453 201.896 231.089 198.662H113.58C109.042 199.298 104.477 199.602 99.8839 199.602C55.2267 199.574 17.4313 170.302 4.64835 129.944C14.2217 109.517 38.7915 94.9775 67.6223 94.9775C95.706 94.9775 119.778 108.771 129.821 128.397C134.774 127.484 139.782 127.042 144.818 127.042C173.925 127.042 198.716 141.886 208.068 162.617C215.816 160.268 223.867 159.079 231.974 159.107C255.686 159.107 276.576 168.975 288.529 183.874Z" fill="#6C63FF"/>
<path d="M207.349 87.7906H76.1995V98.0181H207.349V87.7906Z" fill="white"/>
<path d="M207.349 109.904H76.1995V120.132H207.349V109.904Z" fill="white"/>
<path d="M207.349 132.018H76.1995V142.245H207.349V132.018Z" fill="white"/>
<path d="M233.8 92.1028L233.109 92.7938L235.35 95.0328L240.33 90.0572L239.638 89.3662L235.35 93.6231L233.8 92.1028ZM239.832 93.0426C239.832 95.2263 238.061 96.9954 235.848 96.9954C233.662 96.9954 231.891 95.2263 231.891 93.0149C231.891 90.8312 233.662 89.0621 235.875 89.0621C236.235 89.0621 236.595 89.1174 236.955 89.2004L237.729 88.4264C237.148 88.1776 236.512 88.0394 235.848 88.0394C233.109 88.0394 230.867 90.2784 230.867 93.0149C230.867 95.7515 233.109 97.9905 235.848 97.9905C238.587 97.9905 240.828 95.7515 240.828 93.0149L239.832 93.0426Z" fill="#3ACC6C"/>
<path d="M233.8 114.216L233.109 114.907L235.35 117.146L240.33 112.171L239.638 111.48L235.35 115.737L233.8 114.216ZM239.832 115.156C239.832 117.34 238.061 119.109 235.848 119.109C233.662 119.109 231.891 117.34 231.891 115.128C231.891 112.945 233.662 111.176 235.875 111.176C236.235 111.176 236.595 111.231 236.955 111.314L237.729 110.54C237.148 110.291 236.512 110.153 235.848 110.153C233.109 110.153 230.867 112.392 230.867 115.128C230.867 117.865 233.109 120.104 235.848 120.104C238.587 120.104 240.828 117.865 240.828 115.128L239.832 115.156Z" fill="#3ACC6C"/>
<path opacity="0.1" d="M158.624 226C236.558 226 299.735 222.844 299.735 218.951C299.735 215.058 236.558 211.903 158.624 211.903C80.6915 211.903 17.5143 215.058 17.5143 218.951C17.5143 222.844 80.6915 226 158.624 226Z" fill="#6C63FF"/>
<path opacity="0.1" d="M251.342 68.9665C251.093 68.6348 250.983 68.2202 250.955 67.8055C250.955 65.2901 256.101 63.2446 262.437 63.2446C268.774 63.2446 273.92 65.2901 273.92 67.8055C273.92 68.2755 273.754 68.7454 273.45 69.1047C280.505 69.8787 285.264 71.3713 285.264 73.0575C285.264 75.5729 274.722 77.6184 261.746 77.6184C248.769 77.6184 238.227 75.5729 238.227 73.0575C238.227 71.2608 243.567 69.7128 251.342 68.9665Z" fill="#6C63FF"/>
<path opacity="0.1" d="M210.088 20.5656C209.895 20.2891 209.784 19.9574 209.784 19.6257C209.784 17.5802 213.99 15.8941 219.136 15.8941C224.282 15.8941 228.516 17.5526 228.516 19.6257C228.516 20.0127 228.377 20.3721 228.128 20.6761C233.883 21.3119 237.757 22.5281 237.757 23.9102C237.757 25.9557 229.18 27.6419 218.583 27.6419C207.985 27.6419 199.408 25.9834 199.408 23.9102C199.408 22.4452 203.752 21.1737 210.088 20.5656Z" fill="#6C63FF"/>
<path opacity="0.1" d="M84.5555 38.4499C84.2511 38.1735 84.0298 37.8141 83.9468 37.3995C83.3934 34.9394 87.9587 31.8435 94.1565 30.4614C100.354 29.0793 105.805 29.9638 106.358 32.4239C106.441 32.8939 106.386 33.3638 106.192 33.7784C113.248 33.0044 118.228 33.4191 118.588 35.0776C119.141 37.5377 109.291 41.8222 96.619 44.6417C83.9468 47.4611 73.2113 47.7652 72.6856 45.3051C72.2706 43.536 77.1679 40.8547 84.5555 38.4499Z" fill="#6C63FF"/>
<path opacity="0.1" d="M56.6101 36.1003C55.9737 35.7133 55.0883 36.0726 54.6456 36.6808C54.2029 37.2889 54.0646 38.0629 53.9816 38.7816C53.7326 40.4124 53.5666 42.2921 54.6456 43.536C52.8472 38.0629 47.6455 33.8889 41.918 33.2808" stroke="#6C63FF" stroke-width="3" stroke-miterlimit="10"/>
<path opacity="0.1" d="M112.778 61.8902C112.362 61.6414 111.809 61.8902 111.532 62.2772C111.283 62.6918 111.117 63.1617 111.09 63.6316C110.924 64.682 110.813 65.8983 111.532 66.6722C110.287 63.1064 107.133 60.5357 103.37 60.0658" stroke="#6C63FF" stroke-width="3" stroke-miterlimit="10"/>
<path opacity="0.1" d="M204.222 45.4985C203.807 45.2498 203.254 45.4985 202.977 45.8855C202.728 46.3001 202.562 46.7701 202.535 47.24C202.369 48.2904 202.258 49.5066 202.977 50.2806C201.732 46.7148 198.55 44.1441 194.815 43.6742" stroke="#6C63FF" stroke-width="3" stroke-miterlimit="10"/>
<path d="M56.5824 212.013C56.5824 212.732 56.4994 213.451 56.3611 214.169C56.3334 214.307 56.3057 214.446 56.2781 214.556C55.5034 217.707 53.2622 220.002 50.6337 220.168C50.5507 220.168 50.4677 220.168 50.357 220.168C47.5624 220.168 45.1829 217.763 44.4082 214.446C44.3805 214.363 44.3805 214.28 44.3529 214.169C44.2145 213.451 44.1315 212.732 44.1315 212.013C44.1315 207.508 46.9261 203.859 50.357 203.859C53.7879 203.859 56.5824 207.535 56.5824 212.013Z" fill="#3F3D56"/>
<path opacity="0.1" d="M56.5824 212.013C56.5824 212.732 56.4994 213.451 56.3611 214.169C56.3334 214.307 56.3057 214.446 56.2781 214.556C56.1951 214.556 56.0844 214.556 56.0014 214.556C55.3097 214.529 54.6456 214.418 53.9539 214.28C53.3729 214.473 52.7642 214.612 52.1278 214.694C51.6574 214.777 51.187 214.805 50.7167 214.833H50.2463C49.6653 214.833 49.1119 214.805 48.5308 214.722C47.6178 214.612 46.7324 214.39 45.847 214.059C45.3766 214.225 44.8786 214.335 44.4082 214.446C44.3805 214.363 44.3805 214.28 44.3529 214.169C44.2145 213.451 44.1315 212.732 44.1315 212.013C44.1315 207.508 46.9261 203.859 50.357 203.859C53.7879 203.859 56.5824 207.535 56.5824 212.013Z" fill="black"/>
<path d="M69.8634 196.865C69.8634 194.875 69.393 192.94 68.5076 191.171L61.1754 193.438L67.5946 189.651C65.4088 186.5 61.9225 184.51 58.0766 184.233C57.7722 183.791 57.4402 183.349 57.0805 182.934L46.5664 186.196L55.199 181.137C49.6653 176.88 41.7244 177.931 37.4634 183.459C36.4673 184.786 35.7203 186.279 35.2776 187.882L44.2976 198.248L34.5305 191.199C28.8308 195.235 27.475 203.14 31.5423 208.834C34.7795 213.368 40.59 215.275 45.8747 213.506C48.4755 214.473 51.3254 214.529 53.9816 213.727C60.8158 215.22 67.5669 210.908 69.061 204.08C69.2547 203.195 69.3654 202.283 69.3654 201.371C69.3654 201.095 69.3654 200.818 69.3377 200.542C69.6974 199.353 69.8634 198.109 69.8634 196.865Z" fill="#6C63FF"/>
<path opacity="0.1" d="M69.6421 199.215C65.7684 198.496 61.8118 198.441 57.9382 199.077C53.5389 199.796 49.0566 201.399 44.7402 200.238C42.2224 199.547 40.0366 197.971 37.5741 197.087C35.1946 196.257 32.6214 196.092 30.1589 196.644C27.475 203.085 30.5186 210.493 36.9654 213.202C39.7876 214.39 42.9418 214.501 45.847 213.534C48.4478 214.501 51.2977 214.556 53.9539 213.755C60.7881 215.247 67.5392 210.935 69.061 204.108C69.2547 203.223 69.3654 202.311 69.3654 201.399C69.3654 201.122 69.3654 200.846 69.3377 200.569C69.4484 200.1 69.559 199.657 69.6421 199.215Z" fill="black"/>
<path d="M280.505 198.165L291.794 191.531C290.272 188.932 288.308 186.583 286.039 184.62L264.762 191.254L281.446 181.469C268.303 174.282 251.84 179.092 244.646 192.222C242.461 196.202 241.299 200.708 241.326 205.241C241.326 220.195 253.473 220.72 268.441 220.72C283.41 220.72 295.557 220.195 295.557 205.241C295.557 201.454 294.782 197.722 293.233 194.239L280.505 198.165Z" fill="#6C63FF"/>
<path opacity="0.1" d="M283.383 212.704C282.22 211.46 280.809 210.493 279.398 209.581C277.351 208.226 275.22 206.844 272.813 206.374C270.683 205.96 268.497 206.319 266.339 206.181C262.576 205.96 259.062 204.329 256.433 201.648C254.884 200.044 253.666 198.109 251.813 196.893C249.82 195.594 247.275 195.29 244.923 195.622C244.231 195.732 243.54 195.87 242.876 196.036C241.824 198.994 241.271 202.09 241.271 205.241C241.271 220.195 253.417 220.72 268.386 220.72C275.663 220.72 282.248 220.61 287.118 218.758L286.315 217.238C285.458 215.634 284.6 214.031 283.383 212.704Z" fill="black"/>
</svg>
