<svg width="40" height="40" viewBox="0 0 24 24" fill="none" xmlns="http://www.w3.org/2000/svg">
<path d="M13.5 20C14.3284 20 15 19.3284 15 18.5C15 17.1193 16.1193 16 17.5 16C18.3284 16 19 15.3284 19 14.5V11.5C19 11.2239 19.2239 11 19.5 11C19.7761 11 20 11.2239 20 11.5V14.5C20 18.0899 17.0899 21 13.5 21H6.5C5.11929 21 4 19.8807 4 18.5V5.5C4 4.11929 5.11929 3 6.5 3H12.5C12.7761 3 13 3.22386 13 3.5C13 3.77614 12.7761 4 12.5 4H6.5C5.67157 4 5 4.67157 5 5.5V18.5C5 19.3284 5.67157 20 6.5 20H13.5ZM15.7913 19.5014C16.9874 18.9526 17.9526 17.9874 18.5014 16.7913C18.1948 16.9255 17.8561 17 17.5 17C16.6716 17 16 17.6716 16 18.5C16 18.8561 15.9255 19.1948 15.7913 19.5014ZM18 6H20.5C20.7761 6 21 6.22386 21 6.5C21 6.77614 20.7761 7 20.5 7H18V9.5C18 9.77614 17.7761 10 17.5 10C17.2239 10 17 9.77614 17 9.5V7H14.5C14.2239 7 14 6.77614 14 6.5C14 6.22386 14.2239 6 14.5 6H17V3.5C17 3.22386 17.2239 3 17.5 3C17.7761 3 18 3.22386 18 3.5V6ZM8.5 9C8.22386 9 8 8.77614 8 8.5C8 8.22386 8.22386 8 8.5 8H12.5C12.7761 8 13 8.22386 13 8.5C13 8.77614 12.7761 9 12.5 9H8.5ZM8.5 12C8.22386 12 8 11.7761 8 11.5C8 11.2239 8.22386 11 8.5 11H15.5C15.7761 11 16 11.2239 16 11.5C16 11.7761 15.7761 12 15.5 12H8.5ZM8.5 15C8.22386 15 8 14.7761 8 14.5C8 14.2239 8.22386 14 8.5 14H13.5C13.7761 14 14 14.2239 14 14.5C14 14.7761 13.7761 15 13.5 15H8.5Z" fill="white"/>
</svg>
